<svg width="100" height="100" viewBox="0 0 100 100" fill="none" xmlns="http://www.w3.org/2000/svg">
<path d="M39.9249 19.0765C36.6441 17.1649 37.9795 13.5793 39.3599 12.0808C37.4943 8.80838 39.0262 6.17863 39.7366 5.27414C40.1789 4.41014 41.4906 2.71898 42.9381 2.81618C44.3855 2.91338 43.4631 2.35487 46.5162 0.736367C49.5694 -0.882133 52.654 0.534164 53.6725 1.49266C54.1416 2.24866 55.5231 3.6426 56.8741 3.3834C58.225 3.1242 59.2834 3.92376 59.6989 4.32877C61.468 7.34197 60.3951 10.6904 59.5106 12.2699C61.0786 13.1204 61.9144 16.0656 60.8289 18.1311C59.7433 20.1966 56.8572 20.9133 55.9324 21.1563C55.1926 21.3507 53.7918 22.3315 53.2959 22.858C51.8887 23.7085 48.3147 22.9802 46.3279 22.4798C45.2322 22.2039 43.6491 21.8855 43.1264 21.7236C41.486 21.7236 40.595 19.5625 39.9249 19.0765Z" fill="#FA8B95"/>
<path d="M39.1706 13.2153C36.9307 12.0191 38.0406 8.36984 38.0406 7.92125L38.7939 5.46329C39.3913 4.81534 40.9385 3.44329 42.3721 3.38348C44.164 3.30871 44.7946 3.533 46.1386 3.38348C47.4825 3.23395 48.8241 3.14619 50.0934 2.24903C51.3627 1.35187 53.2659 2.32813 54.2365 2.62718C55.013 2.86642 57.5865 3.74103 58.7563 4.13977L60.8278 6.21958C61.1265 7.21643 61.6409 9.22352 61.5811 10.0011C61.5065 10.973 61.2725 12.1334 60.4512 13.4044C59.6299 14.6754 58.9703 14.7366 57.6263 15.4842C56.2824 16.2318 56.6001 16.6712 55.5548 17.9422C54.5095 19.2131 53.4566 18.6632 50.47 18.8875C47.4835 19.1118 48.6515 18.5007 47.4568 17.7531C46.2622 17.0054 46.2356 17.7926 44.4437 17.9422C42.6517 18.0917 42.1771 17.428 41.4305 15.4842C40.6838 13.5403 41.4105 14.4115 39.1706 13.2153Z" fill="#F96779"/>
<path d="M12.8066 51.9752V37.6056C17.005 39.322 30.5896 42.8996 51.2247 42.8996C71.8598 42.8996 84.1695 39.0967 87.7596 37.2274V52.5424C86.7037 55.0749 77.6953 60.1497 50.4714 60.2944C23.2476 60.4391 14.0485 54.8092 12.8066 51.9752Z" fill="#2C494B"/>
<path d="M12.8066 41.009V37.9838C15.523 39.1498 25.9525 41.6329 45.575 42.7107C65.1975 43.7884 81.8436 39.6527 87.7596 37.4166L87.5712 40.6309C63.1524 48.8878 32.4073 45.446 16.7614 41.9544L16.5731 55.0005L12.8066 52.7316V41.009Z" fill="#4C736A"/>
<path d="M36.5373 17.9421C34.2056 16.0622 34.5916 12.3689 35.0307 10.7573L37.4789 11.8918L36.5373 17.9421Z" fill="#55A678"/>
<path d="M62.4157 19.1703C65.5838 17.1472 65.709 12.5695 65.3517 10.5312L62.0354 11.5331L62.4157 19.1703Z" fill="#55A678"/>
<path d="M19.9643 34.5806C21.0097 33.3633 22.1652 33.3153 22.6008 33.4461C23.1332 34.8041 24.2518 37.8618 24.4841 39.1183C24.7744 40.689 22.9965 40.4218 18.8343 39.6856C14.6722 38.9493 18.6576 36.1022 19.9643 34.5806Z" fill="#55A678"/>
<path d="M79.6613 34.5805C78.6133 33.3665 77.4614 33.3156 77.0247 33.4461C76.491 34.8004 73.4911 38.9996 73.2582 40.2527C72.9671 41.8192 76.6187 40.4198 80.7912 39.6855C84.9638 38.9513 80.9712 36.098 79.6613 34.5805Z" fill="#55A678"/>
<path d="M3.01439 40.2528C-0.0941134 39.3097 2.72388 35.9632 4.52098 34.3915C6.75521 33.9986 12.5396 37.6253 12.0539 38.362C11.5682 39.0988 6.90002 41.4316 3.01439 40.2528Z" fill="#55A678"/>
<path d="M97.7415 40.0638C100.85 39.0636 98.032 35.4913 96.2349 33.8243C94.0007 33.4076 88.2162 37.2026 88.7019 37.984C89.1876 38.7654 93.8558 41.314 97.7415 40.0638Z" fill="#55A678"/>
<path d="M48.2126 33.068L48.7776 24.3706L51.2258 24.7488L50.6608 26.4504L53.8623 39.1184L56.1222 43.278L44.2578 43.4671L48.2126 33.068Z" fill="#55A678"/>
<path d="M69.4885 9.43373C69.4574 6.31901 72.6248 4.7089 74.1966 4.32874C76.379 4.45458 77.1189 6.65711 77.2098 7.73206C77.6463 12.7345 74.5865 14.095 73.0667 14.1606C71.8586 13.8591 69.5197 12.5484 69.4885 9.43373Z" fill="#FA8B95"/>
<path d="M77.0221 7.35385C75.2985 7.43423 71.5025 9.90455 69.8658 11.1353C69.657 10.8423 69.3008 10.0283 69.3008 9.24458C69.3008 8.26499 69.6532 6.34362 70.0541 5.84126C70.4549 5.3389 71.7913 4.64195 73.8206 4.13959C75.4439 3.73771 76.6045 4.59098 77.0221 5.08496C77.7152 5.82175 78.7457 7.27347 77.0221 7.35385Z" fill="#FFE4E6"/>
<path d="M30.1326 9.05555C30.1637 5.94083 26.9963 4.33073 25.4245 3.95056C23.2421 4.0764 22.5022 6.27894 22.4113 7.35389C21.9748 12.3563 25.0346 13.7169 26.5544 13.7824C27.7625 13.4809 30.1014 12.1703 30.1326 9.05555Z" fill="#FA8B95"/>
<path d="M22.599 6.97567C24.3226 7.05605 28.1186 9.52637 29.7553 10.7571C29.9641 10.4641 30.3203 9.65009 30.3203 8.86641C30.3203 7.88681 29.9678 5.96544 29.567 5.46308C29.1662 4.96072 27.8297 4.26378 25.8005 3.76142C24.1772 3.35953 23.0166 4.2128 22.599 4.70679C21.9059 5.44358 20.8754 6.89529 22.599 6.97567Z" fill="#FFE4E6"/>
<path d="M50.0924 60.6727C29.2526 60.7839 18.9357 57.4451 14.6875 54.6223V90.5463C15.7288 93.4541 24.1982 99.2437 49.9041 99.2437C75.61 99.2437 83.9802 94.0838 84.9323 91.4917V55.0005C80.7585 57.53 70.6393 60.563 50.0924 60.6727Z" fill="#2C494B"/>
<path opacity="0.5" d="M79.8496 56.8912V40.6309L83.9927 39.1183L87.9475 37.7948V39.4965V44.6015V50.0846C87.7081 51.1528 87.0679 53.5439 86.4409 54.4333C85.814 55.3227 81.7652 56.4117 79.8496 56.8912Z" fill="#1F2E2F"/>
<path d="M15.6305 15.2951C14.4184 14.406 10.3658 14.5831 8.85083 15.2951C8.20988 15.6453 6.57973 16.8846 5.461 18.5094C4.34227 20.1342 4.4145 22.5872 4.51938 23.6144C3.23284 25.9955 2.71958 27.949 2.82446 28.7194C2.48885 32.109 6.50662 33.8967 8.66251 34.0134C8.87227 35.169 11.0936 37.0036 15.2538 37.0386C19.4141 37.0736 19.0879 34.9309 19.9619 33.6353C20.6611 32.5988 22.9416 32.2283 23.1634 32.1227C23.3852 32.0171 24.3139 31.2912 24.4817 30.0429C24.6495 28.7945 24.3249 25.7948 24.67 24.7488C25.0152 23.7028 23.8529 22.5477 23.3518 22.2909C23.8832 20.8622 23.4198 19.5038 23.1634 18.6985C21.765 15.3369 18.6325 16.0163 17.5137 16.9968C17.5137 16.9968 16.8426 16.1843 15.6305 15.2951Z" fill="#FA8B95"/>
<path d="M9.03943 34.2025C19.8156 35.3303 23.5703 25.333 24.1053 20.211L22.7871 16.8077L19.5856 15.6733C17.7449 15.4228 13.8027 14.9865 12.9942 14.917C11.9836 14.8301 10.4371 15.543 9.03943 15.6733C7.6418 15.8036 7.35937 17.0826 6.02624 18.3203C4.69312 19.5581 4.98247 22.2727 4.70798 23.8034C4.48838 25.028 3.64652 25.7727 3.20139 26.0723L2.25977 28.5303L3.01306 31.7445L5.27295 33.6353L9.03943 34.2025Z" fill="#F96779"/>
<path d="M19.0204 94.1388V56.7022L15.2539 54.4333V86.0087L15.4422 90.9246L19.0204 94.1388Z" fill="#4C736A"/>
<path d="M43.8804 40.0636C46.2977 38.1327 46.1457 35.7257 45.7637 34.7696C46.3471 34.2938 47.6415 32.7264 48.0236 31.9334C49.2739 28.8552 48.3322 26.3927 47.082 24.7486C46.0817 23.4334 43.6851 23.1078 42.5622 23.2361C41.8213 22.1167 39.3575 19.9099 36.9125 20.0218C34.4675 20.1337 32.1341 22.0067 31.4511 22.8579C29.0547 22.753 27.0115 23.1896 26.178 25.8831C25.5112 28.0379 26.0684 30.0786 26.5546 30.9881L26.178 31.3662C22.9416 33.8658 23.6241 36.4664 25.0481 38.7401C26.1872 40.5591 29.5316 41.8003 30.8861 41.7653L32.2044 43.0888C33.6769 44.572 38.8745 43.5092 40.3023 42.8997C41.7301 42.2902 41.4632 41.9945 43.8804 40.0636Z" fill="#FA8B95"/>
<path d="M27.6837 36.4713C25.9801 35.2533 25.4745 32.4121 25.4238 31.1772L25.8005 28.3411L26.9304 25.1268L28.0604 22.8579H31.4502L32.9568 21.5344L36.1583 19.8328L39.9248 20.4L42.5613 22.6689L47.4577 24.3705C48.0493 25.7577 49.1526 28.7181 49.1526 29.2864C49.1526 29.9969 47.5157 33.7775 46.7044 35.1477C45.8932 36.518 44.9081 36.4573 43.6912 36.6603C42.4744 36.8633 42.6627 38.1033 41.243 39.1183C39.8234 40.1333 37.4838 40.0408 35.405 39.6855C33.3262 39.3303 34.4561 38.4864 32.5801 38.7401C30.7041 38.9939 29.8132 37.9937 27.6837 36.4713Z" fill="#F96779"/>
<path d="M63.6534 20.589C60.7132 19.9537 58.267 20.9141 57.4387 22.2907C55.5327 21.367 51.8144 24.4609 51.2241 27.9629C50.7518 30.7645 53.1904 33.5581 54.2372 34.5805C53.7461 35.2181 53.7898 36.8089 53.8606 37.2275C54.6917 40.2417 57.2936 41.8051 58.5687 42.5216C60.5757 44.7194 65.7233 43.7085 66.29 43.467C66.7433 43.2737 68.2536 42.3623 69.8681 42.1434C71.4827 41.9245 73.0999 40.7221 74.9529 38.362C76.8058 36.0018 75.5472 32.9093 74.9529 32.1225C74.3585 31.3358 74.0033 32.4999 74.3879 29.8537C74.7725 27.2074 73.3088 25.4791 72.5047 24.3705C71.7006 23.262 69.1656 23.093 68.3615 23.2361C67.7182 23.3505 67.616 23.0165 67.6082 22.8579C67.5392 22.3637 66.5936 21.2244 63.6534 20.589Z" fill="#FA8B95"/>
<path d="M56.686 37.6057C55.0214 37.3273 53.9502 35.3429 53.6728 34.3915L51.7896 31.1772L51.2246 28.7193L51.4129 26.2613L53.1078 24.3706L55.7444 22.4798L59.3225 20.7782L63.2773 20.2109L66.8555 21.5345L67.4205 23.047H71.7519L73.2585 24.1815C73.7671 25.3185 74.8979 27.6845 74.9534 27.963C75.0228 28.311 74.636 29.9937 74.0118 31.1772C73.3876 32.3607 73.4666 33.0292 73.2585 34.7696C73.0504 36.51 72.1281 36.3724 70.8103 37.4166C69.4925 38.4609 68.8572 38.5709 67.6088 38.362C66.3604 38.1532 65.8339 38.7006 64.0306 39.1183C62.2274 39.536 61.3045 39.0882 60.2642 38.7402C59.2238 38.3921 58.7667 37.9538 56.686 37.6057Z" fill="#F96779"/>
<path d="M82.6734 17.1858C85.487 14.4027 88.469 14.4669 89.6414 14.9169C90.9171 15.5573 93.7559 17.2445 94.9144 18.6984C96.073 20.1522 96.165 22.6956 96.0444 23.8034C96.4754 24.1149 97.4725 25.1168 97.9276 26.0722C98.4965 27.2665 97.8321 28.6849 96.7977 31.1772C95.9701 33.1711 92.6996 33.55 91.1479 33.4461C91.0273 34.1904 90.0667 35.8711 87.0048 36.6604C83.1775 37.6469 81.6323 36.6056 81.1668 34.5806C80.7944 32.9605 78.2209 32.8117 77.212 32.5007C76.203 32.1898 75.37 30.9948 75.7054 30.2319C76.0408 29.4689 76.1338 28.1733 76.082 27.5848C75.8062 27.0483 75.099 25.621 75.1404 24.7487C75.1818 23.8764 76.1974 22.4132 76.8353 22.1017C76.4629 21.1463 77.1085 20.0791 77.212 19.2656C77.874 16.0671 81.1562 16.5627 82.6734 17.1858Z" fill="#FA8B95"/>
<path d="M77.024 23.6143C76.9436 22.2453 76.459 21.4785 76.459 21.1564L76.6473 19.8328L78.7189 17.564L82.1087 18.1312L83.8036 16.8077C85.4242 16.6198 88.8933 16.3245 90.0183 16.8077C91.4246 17.4117 91.555 17.5394 92.2782 17.9421C93.0014 18.3448 93.1671 18.4165 93.4081 18.6984C93.6492 18.9803 92.9386 22.3503 93.2198 23.2362C93.5011 24.122 94.1789 23.6983 95.1031 24.1815C96.0272 24.6647 95.6554 25.0499 95.8563 25.6941C96.0573 26.3384 96.9887 26.9371 97.5513 27.0176C98.0013 27.0821 97.9681 28.0336 97.9279 28.5302L96.798 32.5008C95.8872 33.0645 93.927 34.1338 93.2198 34.3915C92.3358 34.7137 91.2363 34.388 89.83 33.8243C88.4237 33.2606 88.2909 34.283 87.0051 34.2024C85.7194 34.1219 85.8451 33.9013 85.1219 33.2571C84.3986 32.6128 83.7484 32.956 83.427 32.3117C83.1055 31.6674 82.4955 30.8482 81.7321 30.0428C80.9686 29.2375 80.9463 29.6927 79.6605 29.8538C78.3747 30.0148 78.8646 29.143 78.3422 27.7739C77.8199 26.4049 78.0309 26.8216 77.5889 25.6941C77.1469 24.5667 77.1043 24.9834 77.024 23.6143Z" fill="#F96779"/>
<path opacity="0.5" d="M15.2539 60.4837C41.592 69.4532 69.3108 65.7223 79.849 62.7526V95.0842L85.4987 91.6809L85.3104 55.1896L76.2709 58.2148C40.567 63.2873 20.7008 57.7932 15.2539 54.4333V60.4837Z" fill="#1F2E2F"/>
<path fill-rule="evenodd" clip-rule="evenodd" d="M91.7142 15.8622C93.6613 16.908 95.2608 18.702 95.669 20.9672C96.0565 23.1177 95.6264 25.0621 94.1624 26.4504C92.7316 27.8071 90.5259 28.4018 87.7594 28.3411C84.7426 28.2749 82.945 26.6165 82.298 24.5596C81.6805 22.5966 82.0497 20.3998 83.6162 19.0765C85.2279 17.715 87.4021 17.8187 88.8893 18.6983C90.3545 19.565 91.4496 21.1622 91.3375 23.047C91.2963 23.7396 91.1979 24.5343 90.5842 24.9378C89.9802 25.3349 89.1531 25.2811 88.701 25.1268C87.7875 24.8152 86.8187 23.9862 86.2528 23.4252L87.571 22.1017C88.0908 22.6169 88.9593 23.0673 89.4543 23.2361C89.4863 23.247 89.431 23.23 89.4543 23.2361C89.4686 23.1761 89.4466 23.1766 89.4543 23.047C89.5136 22.0492 88.9681 21.0036 87.9477 20.4C86.9493 19.8095 85.7798 19.6859 84.9345 20.4C84.044 21.1522 83.5676 22.6403 83.9929 23.9924C84.3887 25.2506 85.5193 26.4012 87.7594 26.4504C90.2497 26.505 91.9036 26.0186 92.8441 25.1268C93.7514 24.2666 94.2722 23.0001 93.9741 21.3454C93.6966 19.8054 92.5563 18.4207 90.9609 17.5639C89.3774 16.7135 87.4895 16.374 85.8761 16.8076C85.5134 16.9367 84.8865 17.1405 84.3695 17.3748C84.1031 17.4956 83.8126 17.6416 83.6162 17.753C83.5184 17.8085 83.4882 17.9002 83.4279 17.942C83.3982 17.9627 83.4442 17.9289 83.4279 17.942C83.4113 17.9555 83.239 17.9426 83.2396 17.942L83.0513 18.3202H82.4863C81.5053 18.18 80.3582 18.16 79.6614 18.6983C79.3482 18.9403 79.1856 19.2984 79.0965 19.8328C79.0029 20.3937 79.0393 21.2949 79.4731 22.4798C80.6261 25.6295 81.7445 27.7023 83.4279 29.0974C85.0891 30.474 87.3548 31.2828 90.7725 31.3663C93.3769 31.4299 94.5514 30.5258 95.104 29.6646C95.7004 28.7351 95.6716 27.6555 95.4806 26.8285L97.3639 26.2613C97.63 27.4137 97.7567 29.3061 96.7989 30.7991C95.7973 32.3603 93.8365 33.3318 90.7725 33.257C87.105 33.1675 84.3937 32.3467 82.298 30.61C80.2245 28.8917 78.7796 26.297 77.5899 23.047C77.0866 21.6721 77.0474 20.6378 77.2132 19.6437C77.3835 18.6231 77.8509 17.7115 78.5315 17.1857C79.6802 16.2983 81.1433 16.1436 82.298 16.2404C82.4147 16.1611 82.5626 16.1148 82.6746 16.0513C82.9377 15.902 83.3208 15.807 83.6162 15.6732C84.2076 15.4052 84.7224 15.2473 85.1228 15.1059L85.3112 14.9169V14.9169C87.4622 14.3249 89.7653 14.8156 91.7142 15.8622ZM89.4543 23.4252C89.4542 23.4251 89.4521 23.4281 89.4543 23.4252C89.4524 23.4285 89.4544 23.4253 89.4543 23.4252ZM89.6426 23.2361C89.646 23.2356 89.6425 23.236 89.6426 23.2361C89.6427 23.2362 89.6463 23.2361 89.6426 23.2361ZM78.7198 32.3116C75.9306 29.374 74.3554 25.6532 74.0117 23.2361L75.895 22.858C76.1798 24.861 77.5047 28.3199 80.0381 30.9881C82.5413 33.6246 86.1587 35.453 90.7725 34.7696L90.9609 36.6603C85.6096 37.4529 81.5391 35.2811 78.7198 32.3116Z" fill="#FFE4E6"/>
<path fill-rule="evenodd" clip-rule="evenodd" d="M21.8474 18.8874C22.74 20.1069 23.2113 21.4798 22.789 23.047C22.0636 25.7391 20.7589 27.7699 18.6458 29.2864C16.5741 30.7733 13.7863 31.7104 10.3596 32.6898C8.85811 33.1189 7.49476 33.0776 6.40479 32.6898C5.3103 32.3003 4.50421 31.6571 3.95658 30.799C2.8901 29.1279 2.73622 26.9831 2.82664 25.505H4.70988C4.63127 26.7899 4.88642 28.6548 5.6515 29.8537C6.01966 30.4305 6.53376 30.7659 7.15809 30.9881C7.78695 31.2119 8.57231 31.3374 9.79462 30.9881C13.1775 30.0213 15.7211 29.062 17.5159 27.7739C19.2694 26.5153 20.291 24.9503 20.9057 22.6689C21.1535 21.7493 20.9626 20.6822 20.3408 19.8328C19.7079 18.9682 18.8124 18.2908 17.5159 17.7529C14.9093 16.6716 11.4078 16.7026 8.85301 18.5092C7.49186 19.4718 6.75943 20.2485 6.40479 20.9672C6.06148 21.663 6.06959 22.3199 6.21647 22.8579C6.53426 24.022 7.70492 25.022 8.66468 25.694C8.97114 25.9086 9.59608 25.9892 10.3596 26.0722C11.1036 26.1531 11.8014 26.2434 12.6195 26.0722C14.3248 25.7152 15.5488 24.7836 15.821 23.6142C16.1326 22.2753 15.6199 21.3811 14.8794 20.9672C14.1003 20.5317 12.8897 20.5117 11.6779 21.3454C11.109 21.7367 11.116 22.1753 11.1129 22.2907C11.109 22.4346 11.0657 22.47 11.3012 22.6689C11.5395 22.8701 11.8525 23.0551 12.0545 23.047C12.1994 23.0412 12.3446 23.0494 12.4312 22.8579L14.1261 23.6142C13.7237 24.5039 13.0487 24.9053 12.2428 24.9378C11.494 24.9679 10.7117 24.6379 10.1713 24.1815C9.628 23.7226 9.20637 22.9646 9.22965 22.1016C9.25371 21.2102 9.64983 20.4506 10.5479 19.8328C12.2699 18.6482 14.3272 18.6197 15.821 19.4546C17.3533 20.3111 18.1895 22.0966 17.7042 24.1815C17.1795 26.4359 14.9491 27.5541 12.9961 27.9629C11.985 28.1746 10.9278 28.0656 9.98295 27.9629C9.05767 27.8623 8.20623 27.6768 7.53474 27.2066C6.53857 26.5091 4.83946 25.0904 4.33323 23.2361C4.06811 22.265 4.16013 21.325 4.70988 20.2109C5.24831 19.1197 6.20465 18.0704 7.72306 16.9967C10.9273 14.7308 15.0189 14.781 18.0809 16.0513C19.6187 16.6892 20.9658 17.6831 21.8474 18.8874Z" fill="#FFE4E6"/>
<path fill-rule="evenodd" clip-rule="evenodd" d="M45.9522 24.3705C46.843 25.1126 47.6292 25.9401 47.8354 27.0176C48.1516 28.6692 48.2057 32.7196 46.7055 36.2822C45.9473 38.0824 44.6642 39.9586 42.939 41.1981C41.2005 42.4471 39.0066 43.0789 36.1593 42.8998C31.6734 42.6175 28.7775 40.7259 26.9315 38.5511C25.1095 36.4045 24.3659 33.9979 24.2949 32.3116H26.1782C26.2331 33.6159 26.7285 35.6245 28.2497 37.4166C29.7469 39.1804 32.338 40.7568 36.3477 41.009C38.8101 41.1639 40.643 40.4695 41.9974 39.4964C43.365 38.5139 44.3469 37.1019 45.0106 35.5259C46.354 32.3357 46.2024 28.7028 45.9522 27.3957C45.8752 26.9938 45.632 26.5578 44.8222 25.8831C44.0469 25.2372 42.9069 24.5402 41.809 23.9924C40.7156 23.4468 39.5571 22.9683 38.6075 22.6689C38.1325 22.5191 37.8177 22.3558 37.4776 22.2907C37.118 22.2219 36.8024 22.2822 36.7243 22.2907C35.9614 22.3741 33.4539 22.9495 31.2629 24.1815C30.1712 24.7953 29.1869 25.62 28.6264 26.4503C28.0888 27.2466 27.9615 28.0069 28.2497 29.0974C28.9495 31.7449 29.9835 33.7913 31.2629 34.9587C32.5249 36.1102 34.0035 36.4451 35.5944 36.2822C37.3929 36.098 39.054 35.716 40.3025 34.9587C41.5158 34.2225 42.2805 33.1817 42.374 31.7444C42.4797 30.1208 42.114 28.6259 41.0557 27.5848C40.0241 26.5698 38.2022 25.9139 35.2177 26.4503C33.7192 26.7197 32.8433 27.1606 32.3928 27.5848C31.9753 27.978 31.8036 28.2666 31.8279 28.7192C31.8543 29.2115 32.2156 29.8635 32.5812 30.4209C32.9431 30.9728 33.284 31.4303 33.7111 31.7444C34.5234 32.3417 35.7084 32.6496 36.7243 32.5007C37.7821 32.3457 38.324 31.8368 38.4192 31.3663C38.5872 30.5358 38.2552 29.7834 37.8542 29.4755C37.6887 29.3484 37.5049 29.2102 37.1009 29.2864C36.6683 29.3681 36.0425 29.5405 35.2177 30.2318L34.0878 28.9083C35.0564 28.0964 35.8694 27.5571 36.7243 27.3957C37.608 27.2289 38.3651 27.4876 38.9842 27.9629C40.1525 28.86 40.5592 30.4751 40.3025 31.7444C39.9729 33.3736 38.4856 34.1885 37.1009 34.3914C35.6744 34.6005 33.8456 34.1868 32.5812 33.257C31.9699 32.8075 31.3694 32.292 30.8863 31.5553C30.4067 30.8242 29.995 29.8476 29.9446 28.9083C29.8922 27.9292 30.2252 26.8721 31.0746 26.0722C31.8911 25.3033 33.1538 24.8629 34.8411 24.5596C38.2282 23.9507 40.7863 24.6992 42.374 26.2613C43.9352 27.7972 44.3876 29.9302 44.2573 31.9335C44.1148 34.1231 42.8626 35.6784 41.2441 36.6603C39.6607 37.6209 37.7128 37.9753 35.7827 38.1729C33.645 38.3918 31.5853 37.7792 29.9446 36.2822C28.3214 34.801 27.1299 32.5529 26.3665 29.6646C25.9231 27.9872 26.3063 26.521 27.1198 25.3159C27.9103 24.1449 29.1003 23.1663 30.3213 22.4798C32.7557 21.1109 35.5526 20.5075 36.536 20.4C36.8945 20.3608 37.4438 20.5106 37.8542 20.5891C38.2842 20.6713 38.6497 20.8023 39.1725 20.9672C40.2185 21.2971 41.5727 21.7029 42.7507 22.2907C43.9242 22.8763 45.027 23.5997 45.9522 24.3705Z" fill="#FFE4E6"/>
<path fill-rule="evenodd" clip-rule="evenodd" d="M58.0039 16.8077C59.4075 15.1676 59.8211 13.2345 59.6988 12.2699L61.582 12.0808C61.7768 13.6165 61.2306 15.9323 59.5105 17.9421C57.7531 19.9955 54.7739 21.69 50.2826 21.7236C41.2746 21.7909 37.7329 15.8668 37.4766 12.2699L39.3598 12.0808C39.5474 14.7135 42.2925 19.8926 50.2826 19.8328C54.2903 19.8029 56.6375 18.4042 58.0039 16.8077Z" fill="#FFE4E6"/>
<path d="M51.7914 9.0556C51.7914 9.5255 51.1688 9.81189 50.2848 9.81189C49.4007 9.81189 48.5898 9.5255 48.5898 9.0556C48.5898 8.5857 49.4007 8.11023 50.2848 8.11023C51.1688 8.11023 51.7914 8.5857 51.7914 9.0556Z" fill="#FFE4E6"/>
<path fill-rule="evenodd" clip-rule="evenodd" d="M50.0959 5.27405C47.648 5.27405 45.9527 6.98794 45.9527 8.67738C45.9527 10.3668 47.648 11.8916 50.0959 11.8916C52.5437 11.8916 54.239 10.3668 54.239 8.67738C54.239 6.98794 52.5437 5.27405 50.0959 5.27405ZM44.2578 8.67738C44.2578 5.76846 47.0264 3.57239 50.0959 3.57239C53.1653 3.57239 55.9339 5.76846 55.9339 8.67738C55.9339 11.5863 53.1653 13.5933 50.0959 13.5933C47.0264 13.5933 44.2578 11.5863 44.2578 8.67738Z" fill="#FFE4E6"/>
<path fill-rule="evenodd" clip-rule="evenodd" d="M43.3139 4.13963C41.6689 5.40164 40.6773 7.07303 40.6773 8.86647C40.6773 10.6599 41.6689 12.3313 43.3139 13.5933C44.9596 14.8559 47.3185 15.6731 49.9052 15.6731C52.492 15.6731 54.6625 14.8559 56.3082 13.5933C57.9532 12.3313 58.9448 10.6599 58.9448 8.86647C58.9448 7.07303 57.9532 5.40164 56.3082 4.13963C54.6625 2.87703 52.492 2.05982 49.9052 2.05982C47.3185 2.05982 44.9596 2.87703 43.3139 4.13963ZM42.1839 2.81611C44.1506 1.3073 46.9796 0.358154 49.9052 0.358154C52.8308 0.358154 55.4715 1.3073 57.4382 2.81611C59.4056 4.32552 60.6397 6.43088 60.6397 8.86647C60.6397 11.3021 59.4056 13.4074 57.4382 14.9168C55.4715 16.4256 52.8308 17.3748 49.9052 17.3748C46.9796 17.3748 44.1506 16.4256 42.1839 14.9168C40.2165 13.4074 38.9824 11.3021 38.9824 8.86647C38.9824 6.43088 40.2165 4.32552 42.1839 2.81611Z" fill="#FFE4E6"/>
<path fill-rule="evenodd" clip-rule="evenodd" d="M69.4917 22.4799C70.0205 22.7089 70.4129 22.9218 70.81 23.0471C72.4622 23.5684 73.8381 24.807 74.7648 26.6395C75.6932 28.4752 76.2469 31.0086 76.2714 33.8243C76.2846 35.3411 76.0149 36.525 75.3298 37.6058C74.6506 38.6772 73.608 39.5871 72.5049 40.2528C70.5702 41.4205 68.0799 42.123 65.5369 42.8999C65.2363 42.9917 64.8952 42.9964 64.5953 43.0889C61.8521 43.9357 59.2125 42.9116 57.2507 41.3873C55.28 39.8561 53.7495 37.7256 52.9192 36.2823L54.6141 35.3369C55.3548 36.6245 56.6487 38.529 58.3806 39.8747C60.1214 41.2272 62.1363 41.9719 64.0303 41.3873C64.3282 41.2953 64.6813 41.2872 64.972 41.1982C67.5699 40.4025 69.8428 39.5895 71.5633 38.5512C72.4985 37.9868 73.1565 37.4151 73.6349 36.6604C74.1073 35.9152 74.3985 35.0149 74.3882 33.8243C74.3655 31.2253 73.8381 29.1039 73.0699 27.5849C72.3 26.0626 71.2791 25.075 70.245 24.7488C69.6606 24.5644 69.1749 24.4451 68.5501 24.1816C65.9467 23.0832 62.8481 21.7887 58.7573 24.5597H58.5689H58.3806C57.1701 24.8189 55.5551 25.542 54.6141 26.6395C54.1595 27.1698 53.9206 27.8023 53.8608 28.5302C53.8007 29.2632 53.9834 30.2081 54.6141 31.3664C57.1179 35.9637 62.2806 36.6031 64.5953 36.2823C65.854 35.9737 67.6057 35.1788 68.9268 34.2025C70.2723 33.2081 70.7981 32.2507 70.4333 30.9882C69.8959 29.1278 68.3195 27.8209 66.2902 27.2067C65.2904 26.9041 64.1797 26.7822 63.277 26.8286C62.3585 26.8758 61.6364 27.1033 61.2055 27.3958C60.1364 28.1213 59.3616 29.3471 59.3222 30.421C59.3042 30.9147 59.5234 31.3815 59.8872 31.7445C60.2702 32.1267 60.9019 32.4968 62.1471 32.6899C64.7162 33.0882 65.6913 32.5603 66.1019 32.1226C66.4426 31.7596 66.6397 31.2548 66.6669 30.9882C66.6234 30.9358 66.5565 30.8733 66.4785 30.7991C66.2411 30.5731 65.9213 30.3944 65.5369 30.2319C65.1557 30.0708 64.5937 29.9722 64.2187 30.0428C63.8563 30.1111 63.5605 30.2485 63.0887 30.7991L61.5821 29.6647C62.2937 28.8342 63.19 28.3104 64.0303 28.1521C64.858 27.9962 65.4712 28.0746 66.1019 28.3412C66.7295 28.6064 67.4232 29.12 67.7968 29.4756C67.9838 29.6536 68.0475 29.864 68.1735 30.0428C68.2359 30.1315 68.3099 30.1209 68.3618 30.2319C68.404 30.3222 68.5501 30.5644 68.5501 30.7991C68.5501 31.0947 68.3822 32.2318 67.4202 33.2571C66.417 34.3262 64.668 35.0298 61.7704 34.5806C60.2823 34.3499 59.139 33.8247 58.3806 33.068C57.6031 32.2921 57.4041 31.3752 57.439 30.421C57.5057 28.5992 58.8352 26.6637 60.2639 25.6941C61.0818 25.1391 62.1617 24.9951 63.277 24.9378C64.4082 24.8797 65.6577 24.9535 66.8552 25.316C69.2206 26.0319 71.5345 27.7141 72.3166 30.421C73.0075 32.8123 71.6535 34.5349 70.0567 35.715C68.4506 36.9021 66.3816 37.6443 64.972 37.9839V37.9839H64.7836C62.1137 38.3722 55.9799 37.9317 52.9192 32.3117C52.155 30.9085 51.881 29.5187 51.9776 28.3412C52.0746 27.1587 52.6242 26.2884 53.2959 25.5051C54.5531 24.0387 56.4008 23.1919 57.8156 22.858C62.7761 19.5884 66.9134 21.363 69.4917 22.4799Z" fill="#FFE4E6"/>
<path fill-rule="evenodd" clip-rule="evenodd" d="M39.1714 7.54293C38.7816 9.15503 38.8946 10.5705 39.1714 11.5135V11.8916L38.9831 12.2698C38.4926 12.9973 38.0233 14.2468 38.0414 15.484C38.0584 16.6401 38.4874 17.9127 40.113 18.8874C41.1452 19.3894 42.0362 20.1832 42.9379 21.3453C43.4746 21.3958 44.2019 21.5484 44.8211 21.7235C45.3554 21.8745 45.9655 22.0151 46.516 22.2907C50.144 23.4532 52.7163 22.6811 53.6723 22.1016C53.7054 22.0804 53.8271 21.9336 53.8606 21.9125C54.4329 21.5532 55.0341 21.2908 55.7439 20.9672C56.6381 20.4372 58.0358 19.7298 59.5104 19.2655C60.2467 18.9197 60.5784 18.6131 60.8286 18.1311C61.0915 17.6245 61.2417 16.92 61.2053 16.2403C61.131 14.8566 60.4711 13.3985 59.887 12.4588L59.6987 12.0807V11.7025C60.3376 8.97513 60.3788 7.50064 60.0753 6.40848C59.7741 5.3244 59.2067 4.51596 58.0038 3.19423L59.322 1.87071C60.4923 3.15653 61.5199 4.26244 61.9586 5.84126C62.2616 6.93206 62.1903 8.21507 61.9586 9.81181C62.1491 9.69181 62.5188 9.54578 62.7119 9.43366C63.1899 9.15605 63.5639 9.04603 64.0301 8.86644C64.4559 8.70244 65.0177 8.40144 65.5367 8.4883C66.1706 8.59436 66.5219 9.12031 66.6667 9.43366C66.8312 9.78964 66.9878 10.3212 67.0433 10.7572C67.156 11.6419 67.033 12.7977 66.855 13.9714C66.6763 15.1493 66.4421 16.4173 65.9134 17.5638C65.6819 18.0658 65.2937 18.434 64.9718 18.8874C65.5528 19.0378 66.1457 19.3008 66.6667 19.6436C66.9278 19.7908 67.2563 20.0964 67.6083 20.3999L70.6215 14.5387C69.0224 13.2848 68.372 11.5755 68.3616 10.0009C68.3504 8.30171 69.0765 6.82502 69.6798 5.84126C70.1158 4.90948 70.8672 4.13115 71.7514 3.57238C72.6584 2.99925 73.6896 2.4609 74.7646 2.43794C75.8555 2.41463 77.1574 2.80129 77.9661 3.76145C78.7594 4.7033 78.9884 6.13999 78.9077 7.92107C78.7766 10.817 77.5947 12.6634 76.0829 13.7824C74.8565 14.69 73.6005 15.0338 72.5047 15.1059L68.9266 21.9125C69.0208 21.9052 69.1643 21.9313 69.3032 21.9125C69.3815 21.9019 69.3993 21.9259 69.4915 21.9125C69.8797 21.8561 70.5023 21.737 70.9981 21.7235C71.6273 21.7063 72.1819 21.7515 72.8814 22.1016C73.2519 22.2871 73.7124 22.5304 74.0113 22.8579L75.1412 21.7235C75.1843 18.2553 76.3616 16.1507 78.1544 15.295C79.9032 14.4602 81.8169 14.898 83.0508 15.484L82.2976 17.1857C81.2987 16.7114 79.9228 16.5121 78.9077 16.9966C78.0013 17.4293 76.9901 18.5618 77.0245 21.9125V22.2907L74.9529 24.5596C75.0634 24.8344 75.2515 25.2307 75.3296 25.5049C75.5007 26.1059 75.5745 26.73 75.7062 27.3957C75.8384 28.0641 75.9945 28.7767 76.0829 29.2864V29.2864C76.1253 29.5311 76.2414 29.6915 76.2712 29.8536C76.2866 29.9377 76.2606 29.9914 76.2712 30.0427C76.283 30.1 76.2729 30.2376 76.2712 30.2318C76.3735 30.5854 76.5571 31.195 76.8362 31.9334C78.2329 31.8676 80.1597 32.5662 81.5443 35.1477C82.1044 36.1921 83.0178 36.7509 84.1808 36.8494C85.3643 36.9495 86.619 36.5779 87.3823 36.2821H87.5706V36.2821C88.1725 36.0975 89.2234 35.6729 90.0188 34.9586C90.4656 34.5574 90.8181 34.0818 90.9605 33.6351L91.1488 33.0679L94.5386 32.8788C95.2822 32.3345 96.2181 31.561 96.7985 30.6099C97.4323 29.5713 97.5572 28.609 96.9868 27.7738L98.4934 26.6394C99.661 28.349 99.1317 30.2007 98.3051 31.5553C97.8464 32.307 97.3971 32.8845 96.7985 33.446C97.7681 34.0399 98.3966 34.9833 98.8701 35.904C99.5889 37.3019 99.9334 38.8386 100 39.8745V40.6308L99.435 40.8199C96.2297 42.3112 93.4875 42.2769 91.3371 41.3871C90.3353 40.9726 89.402 40.2919 88.7006 39.6855V52.7316V52.9206C88.3681 53.7218 87.6002 54.6079 86.4407 55.3786V91.4917L86.2524 91.6807C85.9099 92.6139 85.0004 93.4324 83.6158 94.3278C82.203 95.2414 80.3571 96.146 77.5895 96.9748C72.0534 98.6327 63.3889 100 50.4708 100C37.5449 100 28.7651 98.4592 23.1638 96.5967C20.3631 95.6654 18.3908 94.7836 16.9492 93.7606C15.528 92.7521 14.6661 91.5344 14.3126 90.5463H14.1243V54.8114C12.9933 53.9939 12.4058 53.1629 12.0527 52.3534L11.8644 52.1643V39.6855C6.98289 43.3153 2.48728 41.934 0.564972 40.4418L0 40.0636L0.188324 39.3073C0.444397 38.3753 0.995004 36.9762 1.69492 35.7149C2.04503 35.084 2.34409 34.5194 2.82486 34.0133C2.94297 33.8889 3.06826 33.7495 3.20151 33.6351C2.39289 32.7966 1.63404 31.5952 1.31827 30.2318C0.839708 28.1655 1.46769 25.9131 3.9548 23.6142L5.27307 24.9377C3.19797 26.8558 2.9016 28.5587 3.20151 29.8536C3.48879 31.094 4.28242 32.2222 5.08475 32.8788C5.75354 32.844 6.50393 33.0244 7.15631 33.257C8.00367 33.559 8.93372 33.8969 9.79284 34.3914C11.0786 35.1316 12.3188 36.0017 13.1827 36.6603C14.0714 36.716 15.2449 36.7598 16.3842 36.4712C17.6824 36.1424 18.7188 35.5622 19.0207 34.7695C19.5873 33.2817 20.4159 32.4399 21.4689 32.1225C22.0951 31.9338 22.8266 32.0368 23.3522 32.1225C23.6729 31.5948 23.9217 31.012 24.2938 30.6099C23.4123 29.5456 23.1075 28.237 22.9755 27.0175C22.8125 25.5111 22.9194 23.9909 23.1638 23.047C23.6979 19.2806 22.7467 17.8382 21.6573 17.1857C20.4372 16.455 18.63 16.5787 17.3258 16.9966L16.5725 17.1857L16.1959 16.4294C15.9242 15.7548 15.5981 15.2774 15.2542 15.1059C14.8934 14.9259 14.4873 15.0274 13.936 15.1059C12.8054 15.2668 11.5436 15.8131 10.7345 16.4294L9.60452 14.9168C10.5455 14.2001 11.9864 13.439 13.5593 13.2151C14.3598 13.1012 15.206 13.0044 16.0075 13.4042C16.6091 13.7042 17.1226 14.2786 17.5141 14.9168C19.0007 14.5894 21.0059 14.53 22.5989 15.484C24.6152 16.6916 25.6546 19.2318 25.0471 23.4251V23.4251V23.6142C24.8841 24.2249 24.8371 25.064 24.8588 26.0722C24.9682 25.5266 25.0237 25.0696 25.2354 24.5596C25.6767 23.4965 26.4141 22.3785 27.4953 21.7235C28.2994 21.2363 29.1993 20.9942 30.3202 20.9672L27.307 14.9168C26.2112 14.8448 24.7668 14.5009 23.5405 13.5933C22.0287 12.4743 20.8467 10.6279 20.7156 7.732C20.635 5.95091 21.0523 4.51422 21.8456 3.57238C22.6543 2.61222 23.7678 2.22556 24.8588 2.24886C25.9337 2.27182 26.965 2.81017 27.8719 3.3833C28.7562 3.94207 29.5075 4.72041 29.9435 5.65219C30.5468 6.63594 31.273 8.11262 31.2618 9.81181C31.2514 11.3864 30.601 13.0957 29.0019 14.3496L32.0151 20.2109C32.8116 19.6017 33.7628 19.0663 34.8399 18.6983C33.3342 16.8388 32.0604 13.5039 33.5217 9.24459L33.8983 8.4883L34.6516 8.67737C35.1835 8.78692 35.9197 9.02999 36.7232 9.43366C36.787 9.46575 36.8465 9.58788 36.9115 9.62274C36.9217 8.81066 37.0779 7.84513 37.2881 6.97571C37.7482 5.07285 38.8313 3.10392 40.678 1.68164L41.8079 3.19423C40.3857 4.28958 39.5579 5.94421 39.1714 7.54293ZM36.5348 17.7529C35.4287 16.4921 34.2092 14.0205 35.0282 10.7572C35.3012 10.8532 35.6766 10.988 35.9699 11.1353C36.4113 11.3571 36.8186 11.6189 37.0998 11.8916C36.5851 12.8452 36.1377 14.0843 36.1582 15.484C36.1685 16.1884 36.2446 17.064 36.5348 17.7529ZM27.4953 13.0261C28.8593 12.1244 29.3709 10.967 29.3785 9.81181C29.387 8.53495 28.9152 7.36151 28.4369 6.59756V6.40848H28.2486C28.0086 5.87314 27.6076 5.32391 26.9303 4.89589C26.2565 4.47006 25.532 4.15398 24.8588 4.1396C24.2015 4.12556 23.7151 4.46496 23.3522 4.89589C22.9738 5.34514 22.5307 6.22676 22.5989 7.732C22.7058 10.0942 23.6443 11.3212 24.6704 12.0807C25.6379 12.7968 26.6918 13.0071 27.4953 13.0261ZM22.4105 33.8242C22.2705 33.8334 22.1753 33.9706 22.0339 34.0133C21.5838 34.1489 21.0904 34.5416 20.7156 35.5258C20.1481 37.016 18.8453 37.7517 17.5141 38.1729C19.222 38.6318 21.2637 39.0337 23.7288 39.4964C23.1199 38.7166 22.6337 38.0404 22.4105 37.2275C22.0919 36.0669 22.1336 34.8209 22.4105 33.8242ZM27.1186 40.0636C28.3093 40.3082 29.45 40.9692 30.5085 41.5762C30.6217 41.6411 30.7749 41.7026 30.8851 41.7653C32.1781 42.5004 33.2511 43.158 34.4633 43.2779C35.4309 43.3735 36.6541 43.0029 38.0414 42.5216V42.5216C39.2501 42.1021 40.7142 41.5655 42.1846 41.5762C43.8225 40.687 44.6794 39.7213 45.1977 38.7401C45.615 37.9502 45.8483 37.1381 45.951 36.4712C46.0564 35.7874 46.0501 35.2366 45.951 34.9586L45.5744 34.2023L46.3277 33.8242C46.3306 33.8224 46.3228 33.8274 46.3277 33.8242C46.3524 33.808 46.4477 33.8831 46.516 33.8242C46.6518 33.7071 46.8491 33.4284 47.081 33.0679C47.5424 32.3504 48.0739 31.0586 48.2109 28.7192C48.3058 27.0991 47.8178 25.9166 47.081 25.1268C46.6728 24.6892 46.2941 24.4609 45.7627 24.1814C45.2749 24.0195 44.7657 23.653 44.2561 23.4251C43.6209 23.2512 43.038 23.2545 42.5612 23.236H41.9962L41.8079 22.8579C40.9738 21.6947 39.9879 20.9795 39.1714 20.589C38.3887 20.2147 37.6797 20.149 36.9115 20.2109C34.9991 20.3648 33.231 21.5764 32.2034 22.6688L31.8267 23.047L31.4501 22.8579C30.11 22.6958 29.0908 23.029 28.4369 23.4251C27.7788 23.8238 27.2577 24.5272 26.9303 25.3159C26.2593 26.9324 26.2834 28.9213 26.5537 30.4208L26.742 30.9881L26.3653 31.3662C25.7636 31.8892 25.0895 32.7406 24.6704 33.6351C24.2253 34.5853 23.9947 35.5707 24.2938 36.6603C24.5835 37.7158 25.3925 38.8433 27.1186 40.0636ZM49.1525 24.7486C49.4852 25.2758 49.7398 25.9752 49.9058 26.6394C50.0179 26.2691 50.2815 25.8722 50.4708 25.5049C50.5902 25.2733 50.6972 24.9739 50.8475 24.7486C50.3416 24.7853 49.7208 24.7834 49.1525 24.7486ZM54.8023 23.6142C53.4501 24.4824 52.6186 25.3825 52.1657 26.2612C51.7041 27.1569 51.4996 28.2011 51.6008 29.0973C51.8076 30.9306 52.9403 32.5307 54.049 33.6351L54.4256 34.0133V34.5805C54.2302 35.3757 54.0688 36.8997 54.8023 38.3619C55.3668 39.4873 56.7192 40.4311 58.9454 41.3871C60.2823 41.4858 61.2745 42.2074 61.9586 42.7106C61.9889 42.733 61.9292 42.8782 61.9586 42.8997C62.7189 43.4571 63.1719 43.7297 63.8418 43.656C64.8761 43.5422 65.837 42.7883 67.0433 41.9543C67.1187 41.9023 67.3432 41.8185 67.42 41.7653C67.9231 41.4161 68.4033 41.1242 68.9266 40.8199C69.473 40.5021 69.9843 40.1973 70.6215 40.0636C72.721 38.7426 74.2206 37.4346 74.9529 36.2821C75.6877 35.1258 75.6533 34.2497 75.3296 33.446C74.925 32.4418 74.5466 31.1581 74.3879 30.6099C74.3367 30.4328 74.2731 30.0895 74.1996 29.6646C74.1932 29.6272 74.2061 29.7021 74.1996 29.6646C74.1111 29.1537 73.9503 28.4175 73.823 27.7738C73.6951 27.1274 73.5965 26.5997 73.4463 26.0722C73.3712 25.8083 73.3276 25.4893 73.258 25.3159C73.2235 25.2297 73.096 25.1773 73.0697 25.1268C73.0567 25.1019 73.0779 25.1401 73.0697 25.1268C73.0613 25.1133 73.0695 25.1266 73.0697 25.1268V24.9377V24.9377C72.8098 24.3674 72.4244 23.9516 72.1281 23.8033C71.8109 23.6445 71.4633 23.6015 70.9981 23.6142C70.6234 23.6244 70.2468 23.7486 69.8682 23.8033C69.7611 23.8187 69.6029 23.7882 69.4915 23.8033C69.2578 23.8349 68.9844 23.802 68.7382 23.8033C68.5041 23.8045 68.2934 23.9515 67.9849 23.8033C67.7215 23.6767 67.4302 23.4536 67.2316 23.236C67.1217 23.1156 66.9141 22.8748 66.855 22.6688C66.8023 22.4852 66.8317 22.4342 66.855 22.2907C66.5086 21.8673 66.0276 21.5119 65.725 21.3453V21.3453V21.1562C65.0201 20.6844 64.1285 20.5695 63.0885 20.589C62.127 20.607 61.0643 20.8489 60.0753 21.1562C58.7051 21.5821 57.4743 22.1967 56.6855 22.6688V22.6688H56.4972C55.8406 22.9661 55.306 23.2984 54.8023 23.6142C54.7674 23.6371 54.8396 23.5913 54.8023 23.6142ZM70.9981 41.9543C70.6825 42.0415 70.2778 42.2833 69.8682 42.5216C69.4153 42.785 68.8709 42.9246 68.3616 43.2779C68.2837 43.3319 68.2535 43.4115 68.1733 43.4669C67.031 44.2566 65.6109 45.3729 64.0301 45.5467C62.5734 45.707 61.5615 44.9496 60.8286 44.4123V44.4123C60.067 43.854 59.5797 43.3145 58.7571 43.2779C58.277 43.2986 57.7141 43.4643 57.2505 43.4669C57.1499 43.4675 57.1606 43.4662 57.0621 43.4669C56.4869 43.4713 55.9025 43.4205 55.3672 43.4669C54.3061 43.5589 53.2758 43.8339 52.354 44.4123C51.94 44.6721 51.2517 44.819 50.6591 44.9795C50.0622 45.1412 49.432 45.3627 48.9642 45.3577C47.5716 45.3426 46.2544 44.8284 45.1977 44.4123V44.4123C44.1301 43.9916 43.2558 43.5112 42.3729 43.4669C41.2094 43.4086 39.9742 43.9378 38.6064 44.4123C38.5702 44.4249 38.4546 44.3996 38.4181 44.4123C37.1661 44.8472 35.6928 45.3088 34.275 45.1686C32.614 45.0044 31.2071 44.1854 29.9435 43.4669C29.8535 43.4157 29.6541 43.3276 29.5669 43.2779C28.3433 42.5803 27.459 42.0976 26.5537 41.9543C20.6648 41.0222 16.3342 39.8221 13.7476 38.9292V51.7862C13.9917 52.2167 14.54 52.7623 15.6309 53.4878C19.6431 56.1563 29.8532 59.4602 50.6591 59.3491C71.1848 59.2395 80.9841 56.4511 84.9341 54.0551C86.067 53.3678 86.6039 52.7183 86.8173 52.3534V38.7401C85.2377 39.4343 82.774 40.2455 80.226 41.009C78.4674 41.5359 76.6066 42.1445 74.9529 42.3325C73.4844 42.4995 72.1379 42.4134 70.9981 41.9543ZM89.2655 37.6057C89.9032 38.3147 90.9194 39.0119 92.0904 39.4964C93.6243 40.1311 95.4769 40.4705 97.9284 39.4964C97.8099 38.7126 97.6148 37.7043 97.1751 36.8494C96.6162 35.7625 95.7893 34.951 94.7269 34.7695H92.467C92.427 34.8466 92.3228 35.0739 92.2787 35.1477C92.6193 35.2555 93.0391 35.3779 93.4087 35.5258C94.4169 35.9295 95.547 36.429 96.4218 37.2275L95.1036 38.551C94.4645 37.9677 93.5626 37.5908 92.6554 37.2275C91.9799 36.9571 91.2537 36.7758 90.7721 36.6603C90.2594 37.0603 89.7737 37.3578 89.2655 37.6057ZM82.4859 38.3619C81.4469 37.9972 80.4932 37.2936 79.8493 36.0931C79.0172 34.5415 78.09 33.9582 77.4011 33.8242C77.5111 34.9607 77.1756 36.2896 76.4595 37.4166C75.7865 38.4757 74.7899 39.4149 73.4463 40.4418C73.8569 40.4411 74.2667 40.4984 74.7646 40.4418C76.2638 40.2713 77.9563 39.8181 79.661 39.3073C80.6335 39.0159 81.5927 38.6841 82.4859 38.3619ZM55.1789 41.5762C54.7257 41.2345 54.3945 40.8329 54.049 40.4418C53.594 40.97 52.9972 41.5171 52.1657 41.9543L51.2241 40.2527C52.1475 39.7671 52.6655 39.1498 52.919 38.7401C52.4839 37.7217 52.373 36.7851 52.354 35.904C52.1543 36.0511 51.9625 36.0908 51.7891 36.2821C51.3015 36.8204 50.9803 37.424 50.8475 37.7947V37.9838L50.6591 38.1729C50.251 38.785 49.7156 39.8445 49.7175 41.009C49.7178 41.1704 49.7295 41.5156 49.7175 41.7653V41.7653C49.7036 42.0566 49.7235 42.3891 49.7175 42.7106C49.7141 42.8977 49.7134 43.1147 49.7175 43.2779C49.8698 43.2444 50.1082 43.136 50.2825 43.0888C50.8707 42.9295 51.2581 42.8075 51.4124 42.7106C52.6724 41.92 53.941 41.6835 55.1789 41.5762C55.1985 41.5745 55.1593 41.5778 55.1789 41.5762ZM47.8343 43.2779C47.8309 43.0969 47.831 42.8882 47.8343 42.7106C47.8408 42.3585 47.8204 42.0564 47.8343 41.7653V41.7653C47.8361 41.7272 47.8326 41.6112 47.8343 41.5762L46.3277 40.4418C45.9103 41.0201 45.4703 41.6178 44.8211 42.1434C45.158 42.2636 45.4531 42.3991 45.7627 42.5216C45.8276 42.5473 45.8875 42.6856 45.951 42.7106C46.6256 42.9763 47.218 43.1375 47.8343 43.2779ZM47.2693 38.9292L48.0226 39.4964C48.1914 38.853 48.5317 38.272 48.7759 37.7947L47.8343 36.8494C47.7293 37.4703 47.5538 38.2568 47.2693 38.9292ZM48.2109 34.7695C48.3629 34.5929 48.6173 34.2599 48.7759 34.0133C49.2869 33.2186 49.6337 32.0889 49.9058 30.4208C50.2752 31.7434 51.0491 33.0512 51.7891 34.0133C51.2316 34.3175 50.8444 34.7353 50.4708 35.1477C50.1923 35.4551 49.9159 35.7776 49.7175 36.0931L48.2109 34.7695ZM11.2994 37.7947C10.7161 37.377 10.1272 36.9028 9.4162 36.4712C8.84282 36.8639 8.07791 37.3691 7.34463 37.7947C6.85882 38.0767 6.30045 38.3423 5.83804 38.551C5.39629 38.7504 4.95459 38.8796 4.51977 38.9292L4.33145 37.0384C4.46417 37.0233 4.68094 36.8425 5.08475 36.6603C5.46789 36.4874 5.94813 36.3571 6.40301 36.0931C6.77797 35.8754 7.18031 35.5635 7.53296 35.3368C7.20621 35.1834 6.88932 35.0649 6.59134 34.9586C5.85428 34.6959 5.32933 34.7129 5.08475 34.7695C4.86207 34.8211 4.67073 34.9796 4.33145 35.3368C3.99829 35.6875 3.50616 36.1113 3.20151 36.6603C2.73557 37.4999 2.51213 38.5423 2.25989 39.3073C3.95983 40.2753 7.38572 41.0629 11.2994 37.7947ZM16.0075 55.9458V90.1682C16.2259 90.6425 16.922 91.2378 18.0791 92.0589C19.3312 92.9474 21.2427 94.0057 23.9171 94.895C29.2662 96.6736 37.6695 98.1092 50.4708 98.1092C63.2799 98.1092 71.7217 96.8611 77.0245 95.2731C79.6762 94.479 81.4518 93.6057 82.6742 92.8152C83.787 92.0956 84.3627 91.4966 84.5574 91.1135V56.324C79.5125 58.7627 69.2929 61.1404 50.6591 61.2399C31.7541 61.3408 21.1564 58.6688 16.0075 55.9458ZM68.7382 22.6688C68.7351 22.6762 68.7348 22.6763 68.7382 22.6688C68.7383 22.6686 68.7381 22.669 68.7382 22.6688ZM72.1281 13.2151C72.9315 13.1962 73.9854 12.9858 74.9529 12.2698C75.9791 11.5103 76.9175 10.0942 77.0245 7.732C77.0926 6.22676 76.8379 5.53422 76.4595 5.08497C76.0966 4.65404 75.6102 4.31463 74.9529 4.32867C74.2797 4.34305 73.3669 4.65913 72.693 5.08497C72.0157 5.51299 71.6147 6.06221 71.3748 6.59756V6.59756V6.78663C70.8965 7.55058 70.2364 8.72403 70.2448 10.0009C70.2524 11.1561 70.7641 12.3135 72.1281 13.2151ZM62.7119 18.6983C63.2872 18.2243 63.8237 17.4745 64.2185 16.6185C64.6575 15.6665 64.8138 14.6344 64.9718 13.5933C65.1303 12.548 65.2455 11.6165 65.1601 10.9463C65.1338 10.7397 65.0052 10.4976 64.9718 10.379C64.8978 10.3996 64.8969 10.5244 64.7834 10.5681C64.4466 10.6979 64.088 10.883 63.6535 11.1353C63.0751 11.4712 62.452 11.9155 61.9586 12.2698C62.5114 13.3481 63.0113 14.8024 63.0885 16.2403C63.1338 17.0841 63.0863 17.8728 62.7119 18.6983C62.731 18.6972 62.6928 18.6993 62.7119 18.6983ZM64.9718 10.19C64.9719 10.1894 64.9657 10.179 64.9718 10.19C64.9651 10.1811 64.9716 10.1905 64.9718 10.19Z" fill="#173649"/>
</svg>
